# xmcd
#
# Track frame offsets:
#	150
#	13885
#	29020
#	43715
#	55395
#	68420
#	83700
#	94055
#	106795
#	120770
#	134460
#	147155
#	160785
#	171545
#	185200
#	197680
#
# Disc length: 2786
#
# Revision: 2
# Processed by: cddbd v1.5.1PL0 Copyright (c) Steve Scherf et al.
# Submitted via: EasyCDDAExtractor 6.0.0.1
# Normalized: r1:DSETVAR1
#
DISCID=dc0ae010
DTITLE=Various Artist - Hot Country CD6-6
DYEAR=2004
DGENRE=Country
TTITLE0=Jimmy Dean - Big bad john
TTITLE1=Porter Wagone - the cold hard facts of live
TTITLE2=Jeannie c Riley - harper valley pta
TTITLE3=leon ashley - laura what's he got
TTITLE4=claud king - wolverton mountain
TTITLE5=lee greewood - dixie road
TTITLE6=johnny darrell - ruby , don't take your love to town
TTITLE7=porter wagone - the carroll country accident
TTITLE8=johnny carver - tie a yellow ribbon
TTITLE9=david housten - amost persuaded
TTITLE10=david houston - me and you and a dog named boo
TTITLE11=stonewall jackson - sweet thang
TTITLE12=nat stuckey - you better not do that
TTITLE13=johnny rusel - catfish john
TTITLE14=frankie miller - blackland farmer
TTITLE15=stoneall jackson - waterloo
EXTD=
EXTT0=
EXTT1=
EXTT2=
EXTT3=
EXTT4=
EXTT5=
EXTT6=
EXTT7=
EXTT8=
EXTT9=
EXTT10=
EXTT11=
EXTT12=
EXTT13=
EXTT14=
EXTT15=
PLAYORDER=
